<?xml version="1.0" encoding="utf-8"?>
<!-- Generator: Adobe Illustrator 27.5.0, SVG Export Plug-In . SVG Version: 6.00 Build 0)  -->
<svg version="1.1" id="Layer_1" xmlns="http://www.w3.org/2000/svg" xmlns:xlink="http://www.w3.org/1999/xlink" x="0px" y="0px"
	 viewBox="0 0 385.8 82" style="enable-background:new 0 0 385.8 82;" xml:space="preserve">
<style type="text/css">
	.st0{display:none;fill:#FFFFFF;}
	.st1{font-family:'Roboto-Bold';}
	.st2{font-size:100px;}
	.st3{fill:#4974B9;}
	.st4{fill:#003087;}
</style>
<text transform="matrix(1 0 0 1 95.7325 50.6623)" class="st0 st1 st2">P</text>
<g>
	<path class="st3" d="M80.3,41.7c0,22.1-17.9,40-40,40s-40-17.9-40-40s17.9-40,40-40S80.3,19.6,80.3,41.7z"/>
	<g>
		<path class="st3" d="M89.3,1.7h24.4v78.7H89.3V1.7z"/>
	</g>
	<g>
		<path class="st4" d="M137.1,61.5c-3-1.6-5.3-3.9-6.9-6.9c-1.6-2.9-2.4-6.3-2.4-10.2c0-5.5,1.2-10.4,3.5-14.7s5.5-7.6,9.7-10
			c4.2-2.4,8.9-3.6,14.3-3.6c4,0,7.5,0.8,10.5,2.4c3,1.6,5.3,3.9,7,6.8c1.6,2.9,2.4,6.3,2.4,10.1c0,5.5-1.2,10.3-3.5,14.7
			c-2.3,4.3-5.6,7.7-9.8,10.1c-4.2,2.4-9,3.6-14.4,3.6C143.5,63.9,140.1,63.1,137.1,61.5z M156.2,49.9c2-1.4,3.5-3.2,4.5-5.4
			c1-2.3,1.6-4.7,1.6-7.4c0-2.8-0.8-5-2.3-6.6c-1.5-1.6-3.7-2.3-6.5-2.3c-2.6,0-4.9,0.7-6.9,2c-2,1.3-3.5,3.1-4.6,5.4
			c-1.1,2.2-1.6,4.7-1.6,7.4c0,2.8,0.8,5,2.3,6.6c1.5,1.6,3.7,2.4,6.6,2.4C152,51.9,154.3,51.3,156.2,49.9z"/>
		<path class="st4" d="M201.3,28c2.3-1.3,4.6-1.9,7-1.9L206,39.9h-3.6c-2.7,0-4.9,0.5-6.4,1.5c-1.5,1-2.6,2.8-3.1,5.3l-3,16.8h-13
			l6.6-37h12.9l-1.2,6.7C197,31,199.1,29.3,201.3,28z"/>
		<path class="st4" d="M211.4,36.3c1.9-2.7,4.2-4.8,6.9-6.3c2.7-1.5,5.5-2.2,8.4-2.2c2.4,0,4.4,0.5,6.1,1.4c1.7,0.9,2.9,2.2,3.7,3.9
			l3-16.1h13l-8.6,46.6h-13l1-4.9c-1.3,1.6-3,2.9-5,3.9c-2,1-4.3,1.4-6.8,1.4c-3.9,0-7-1.2-9.3-3.7c-2.4-2.5-3.5-5.8-3.5-10
			c0-1.4,0.1-2.9,0.4-4.4C208.3,42.2,209.6,39,211.4,36.3z M234.4,43.1c0-1.8-0.5-3.3-1.6-4.3c-1-1-2.4-1.5-4-1.5
			c-1.9,0-3.7,0.7-5.2,2c-1.5,1.3-2.5,3.2-2.9,5.6c-0.1,0.7-0.2,1.3-0.2,1.9c0,1.8,0.5,3.3,1.6,4.3c1,1,2.4,1.5,4,1.5
			c1.9,0,3.7-0.7,5.2-2c1.5-1.4,2.5-3.3,2.9-5.7C234.3,44.3,234.4,43.7,234.4,43.1z"/>
		<path class="st3" d="M290.2,40.2c-1.7,2.3-4,4.2-6.8,5.5s-6.2,2.1-10,2.1H267l-2.8,15.7h-13l8.2-46.5h19.3c4.9,0,8.6,1.1,11.2,3.3
			c2.6,2.2,3.8,5.2,3.8,8.9c0,0.9-0.1,2-0.3,3.2C293,35.3,291.9,37.8,290.2,40.2z M280.3,32.5c0.1-0.6,0.1-1.1,0.1-1.3
			c0-1.2-0.4-2.1-1.2-2.8c-0.8-0.7-1.9-1-3.5-1h-5.1l-1.8,10.2h5.1C277.7,37.5,279.8,35.9,280.3,32.5z"/>
		<path class="st3" d="M298.3,34.9c1.9-2.9,4.2-5.1,6.8-6.6c2.7-1.5,5.5-2.3,8.4-2.3c2.6,0,4.7,0.5,6.3,1.5c1.7,1,2.8,2.4,3.5,4.1
			l0.9-5.1h12.9l-6.5,37h-12.9l0.9-5.1c-1.3,1.7-2.9,3.1-5,4.1c-2.1,1-4.4,1.5-6.9,1.5c-3.9,0-7-1.3-9.3-3.9
			c-2.3-2.6-3.5-6.1-3.5-10.5c0-1.5,0.1-3,0.4-4.6C295.1,41.1,296.4,37.8,298.3,34.9z M321.3,43.1c0-1.8-0.5-3.3-1.6-4.3
			c-1-1-2.4-1.5-4-1.5c-1.9,0-3.7,0.7-5.2,2c-1.5,1.3-2.5,3.2-2.9,5.6c-0.1,0.7-0.2,1.3-0.2,1.9c0,1.8,0.5,3.3,1.6,4.3
			c1,1,2.4,1.5,4,1.5c1.9,0,3.7-0.7,5.2-2c1.5-1.4,2.5-3.3,2.9-5.7C321.2,44.3,321.3,43.7,321.3,43.1z"/>
		<path class="st3" d="M355.1,26.5l4,21l11.2-21h14.2l-33.1,54.6h-14.1l12.2-19.2l-8.9-35.4H355.1z"/>
	</g>
</g>
</svg>
